HIERARCHY
ROOT Hips
{
  OFFSET 2.26061 22.2878 23.7974
  CHANNELS 6 Xposition Yposition Zposition Zrotation Xrotation Yrotation
  JOINT LeftUpLeg
  {
    OFFSET 8.64259 1.95398 -2.38835
    CHANNELS 3 Zrotation Xrotation Yrotation
    JOINT LeftLeg
    {
      OFFSET 43.7702 0 0
      CHANNELS 3 Zrotation Xrotation Yrotation
      JOINT LeftFoot
      {
        OFFSET 40.6238 0 0
        CHANNELS 3 Zrotation Xrotation Yrotation
        JOINT LeftToeBase
        {
          OFFSET 12.7242 0 0
          CHANNELS 3 Zrotation Xrotation Yrotation
          End Site
          {
            OFFSET 0 0 0
          }
        }
      }
    }
  }
  JOINT RightUpLeg
  {
    OFFSET -8.2249 1.95398 -2.59336
    CHANNELS 3 Zrotation Xrotation Yrotation
    JOINT RightLeg
    {
      OFFSET 43.5653 0 0
      CHANNELS 3 Zrotation Xrotation Yrotation
      JOINT RightFoot
      {
        OFFSET 40.6238 0 0
        CHANNELS 3 Zrotation Xrotation Yrotation
        JOINT RightToeBase
        {
          OFFSET 12.7242 0 0
          CHANNELS 3 Zrotation Xrotation Yrotation
          End Site
          {
            OFFSET 0 0 0
          }
        }
      }
    }
  }
  JOINT Spine
  {
    OFFSET 0.165834 0.87714 6.61349
    CHANNELS 3 Zrotation Xrotation Yrotation
    JOINT Spine1
    {
      OFFSET 7.38963 1.71661e-005 0
      CHANNELS 3 Zrotation Xrotation Yrotation
      JOINT Spine2
      {
        OFFSET 11.9445 1.14441e-005 0
        CHANNELS 3 Zrotation Xrotation Yrotation
        JOINT Spine3
        {
          OFFSET 14.7254 4.19617e-005 0
          CHANNELS 3 Zrotation Xrotation Yrotation
          JOINT Spine4
          {
            OFFSET 10.9679 0 0
            CHANNELS 3 Zrotation Xrotation Yrotation
            JOINT RightShoulder
            {
              OFFSET 2.46616 -1.6653 3.69651
              CHANNELS 3 Zrotation Xrotation Yrotation
              JOINT RightArm
              {
                OFFSET 13.0012 0 0
                CHANNELS 3 Zrotation Xrotation Yrotation
                JOINT RightForeArm
                {
                  OFFSET 28.7848 1.52588e-005 0
                  CHANNELS 3 Zrotation Xrotation Yrotation
                  JOINT RightHand
                  {
                    OFFSET 26.5688 1.52588e-005 0
                    CHANNELS 3 Zrotation Xrotation Yrotation
                    End Site
                    {
                      OFFSET 0 0 0
                    }
                  }
                }
              }
            }
            JOINT LeftShoulder
            {
              OFFSET 2.38034 -1.29275 -3.7523
              CHANNELS 3 Zrotation Xrotation Yrotation
              JOINT LeftArm
              {
                OFFSET 16.3182 6.10351e-005 0
                CHANNELS 3 Zrotation Xrotation Yrotation
                JOINT LeftForeArm
                {
                  OFFSET 27.0901 0 0
                  CHANNELS 3 Zrotation Xrotation Yrotation
                  JOINT LeftHand
                  {
                    OFFSET 24.5451 1.52588e-005 0
                    CHANNELS 3 Zrotation Xrotation Yrotation
                    End Site
                    {
                      OFFSET 0 0 0
                    }
                  }
                }
              }
            }
            JOINT Neck
            {
              OFFSET 5.0226 -0.0266342 0
              CHANNELS 3 Zrotation Xrotation Yrotation
              JOINT Head
              {
                OFFSET 6.69363 2.86102e-005 0
                CHANNELS 3 Zrotation Xrotation Yrotation
                End Site
                {
                  OFFSET 0 0 0
                }
              }
            }
          }
        }
      }
    }
  }
}
MOTION
Frames:	18
Frame Time:	0.0416667
-50.8196 97.1483 46.9722 -95.2032 -89.0438 -95.0887 -171.434 5.15244 92.8159 -11.5386 10.0707 0.5537 60.7432 0.953415 2.38891 32.0075 2.64467 -1.82384 173.194 3.76568 87.6904 -10.305 -7.04922 -3.29619 63.1141 -2.34711 -1.28998 30.5958 0.240134 -3.07675 -0.0175668 6.90591 -90.1018 13.062 -0.0736147 -0.194648 1.39102 -0.0821591 -0.191338 -21.144 -0.0113125 -0.207049 -1.13137 -0.0113169 -0.207049 93.2385 -51.6941 -95.5553 24.0877 -7.36634 0.358239 -3.02142 -24.9135 -39.1933 -6.73152 -0.885018 5.0471 -105.011 -54.4563 58.7049 -16.8814 15.5082 1.70984 0.804596 11.7936 -29.3494 11.9195 0.965971 4.04206 7.3927 0.852642 5.80865 -0.295313 -0.316836 -3.92211 
-50.8017 97.18 47.0153 -90.3306 -89.0553 -90.0907 -171.33 5.34477 92.9287 -11.6586 9.20768 0.482382 60.7589 0.840954 2.03893 32.6658 3.19082 -2.84552 173.019 3.8614 87.7445 -10.2122 -6.47969 -2.98101 62.5608 -2.12636 -1.16157 31.5907 0.249433 -2.73897 -0.0132899 6.89445 -90.1022 13.0848 -0.076848 -0.194767 1.4139 -0.0853446 -0.19111 -21.1211 -0.0147478 -0.209518 -1.1085 -0.0147362 -0.20952 93.2699 -51.8574 -95.481 24.2167 -7.29314 0.39006 -3.6033 -25.5983 -39.1444 -6.97996 -0.906792 4.99324 -104.989 -54.413 58.7165 -16.8471 15.6173 1.62225 0.446929 11.4987 -28.8377 11.3089 0.95699 4.34342 8.15933 0.634164 4.80632 -1.3791 -0.306302 -2.12082 
-50.8082 97.1668 47.0165 -86.4452 -89.0767 -86.2053 -171.144 5.38292 93.0213 -11.6339 9.11951 0.29753 61.3381 1.43635 1.71632 31.6481 2.4176 -2.62276 173.106 3.94403 87.7856 -10.304 -6.33753 -3.04895 62.7255 -2.16148 -1.17825 31.3321 0.23579 -2.56902 -0.0291719 6.9004 -90.0929 13.073 -0.102539 -0.173264 1.40203 -0.110066 -0.168591 -21.1331 -0.0457299 -0.196078 -1.1204 -0.045723 -0.196074 93.1865 -52.0537 -95.5741 23.9986 -7.20644 0.277049 -3.5811 -25.853 -39.2598 -6.85233 -0.949194 5.71797 -104.787 -54.4144 58.9914 -16.9492 15.6384 1.55761 0.541052 11.6872 -28.9833 11.8374 1.03638 4.65305 8.33576 0.733173 4.54663 -1.50061 -0.164695 -2.01733 
-50.7978 97.1711 46.9937 -86.0416 -88.9942 -85.8111 -171.15 5.39536 93.0143 -11.6737 9.26768 0.281202 61.3517 1.5159 1.83095 31.4679 2.27946 -2.57595 173.118 4.07621 87.7669 -10.4458 -6.36724 -3.06341 62.6305 -2.1036 -1.14207 31.5693 0.235179 -2.41382 -0.0254215 6.90637 -90.1003 13.061 -0.0986428 -0.188418 1.39007 -0.106837 -0.183904 -21.145 -0.0374581 -0.209354 -1.13234 -0.037456 -0.209358 92.9231 -51.7639 -96.0202 24.2651 -7.26355 0.490283 -3.60011 -25.2863 -39.3486 -6.66549 -0.907465 5.35563 -104.858 -54.4785 58.9218 -16.8898 15.626 1.62093 0.528262 11.5596 -29.0669 11.7674 1.02006 4.5666 8.19904 0.723327 4.65022 -1.54033 -0.183979 -1.88022 
-50.8701 97.1661 46.9942 -84.1815 -89.0124 -83.9302 -171.334 5.38619 92.9846 -11.508 8.94439 0.504485 60.7888 0.908158 1.6738 32.3296 2.9324 -2.69424 173.108 4.03275 87.8267 -10.3389 -6.32898 -3.00247 62.6988 -2.13957 -1.1652 31.3065 0.238058 -2.63941 -0.013409 6.91036 -90.1133 13.053 -0.081013 -0.216623 1.38206 -0.0904698 -0.212866 -21.1529 -0.0121677 -0.230958 -1.14029 -0.0121648 -0.230966 93.1692 -51.9732 -95.6133 23.7049 -7.58277 0.191642 -2.67398 -24.8845 -38.7888 -6.89896 -0.897282 5.08341 -105.101 -54.5234 58.6088 -16.6243 15.6187 1.74275 0.373587 11.3323 -28.9699 11.7465 0.98528 4.3008 8.47548 0.764009 3.76606 -2.03177 0.0382225 -0.691954 
-51.2518 97.1628 46.9946 -82.9997 -88.8135 -82.706 -171.205 5.25431 93.299 -11.0929 9.02204 0.523357 60.2719 0.6553 1.64165 33.2285 3.63802 -3.59935 173.121 4.22784 88.036 -10.6667 -6.56276 -2.8489 62.8522 -2.13731 -1.15738 31.2593 0.241362 -2.74782 0.00111993 6.89906 -90.1525 13.0755 -0.0710524 -0.296306 1.40456 -0.0840303 -0.292896 -21.1303 0.0212749 -0.303968 -1.11768 0.0212789 -0.303967 92.9505 -51.7397 -95.9831 23.8757 -7.32207 0.441495 -3.26742 -25.5436 -39.2663 -6.95197 -0.934867 5.47427 -105.211 -54.629 58.5027 -16.5172 15.4641 1.98832 0.420715 11.3557 -28.8947 11.832 0.97427 4.16177 8.44707 0.754809 4.34781 -2.32875 -0.0833569 -1.17587 
-51.9513 97.1681 46.9698 -83.5985 -88.8562 -83.0165 -170.948 5.49125 93.9788 -11.3516 9.48163 0.600016 60.6528 1.08627 1.70597 32.3838 3.00039 -3.27356 173.075 4.20781 88.5291 -10.7933 -6.47821 -2.40495 63.2713 -2.27769 -1.23911 30.6495 0.214894 -2.52335 -0.000674467 6.91074 -90.2075 13.0523 -0.101058 -0.402612 1.3813 -0.118684 -0.397783 -21.1534 0.0246112 -0.414375 -1.14073 0.0246089 -0.414374 92.9327 -51.8122 -95.9973 23.8531 -7.26336 0.38863 -3.32306 -25.2531 -39.0924 -6.40474 -0.901294 5.55926 -104.852 -54.5003 58.9386 -16.3593 15.407 1.86163 0.451024 11.434 -28.8844 11.543 1.01157 4.63829 8.72667 0.872344 4.48222 -2.41579 -0.00851158 -1.55224 
-53.0198 97.149 46.9665 -82.3295 -89.1668 -81.6795 -170.898 5.58237 94.5754 -11.2006 10.5571 0.837012 60.3462 1.26031 2.66338 32.0175 2.73804 -3.44864 173.238 4.11196 89.1158 -11.0275 -6.00841 -2.15888 63.7375 -2.33603 -1.26004 30.3965 0.185306 -2.07152 -0.00232594 6.92494 -90.2694 13.0233 -0.133996 -0.522403 1.35228 -0.156844 -0.516002 -21.182 0.0292012 -0.538523 -1.16937 0.0292091 -0.53851 92.9605 -51.653 -95.9829 23.9504 -7.2178 0.247748 -3.67842 -25.6313 -39.0412 -6.479 -0.887301 5.18136 -105.208 -54.6307 58.5075 -15.8903 15.4704 1.68433 0.282872 11.5049 -28.6328 12.1188 1.04649 4.55765 8.54037 0.766276 4.90243 -2.08768 -0.194232 -1.8904 
-54.2549 97.0998 47.0345 -39.8024 -89.7428 -39.3296 -171.006 5.54635 94.971 -10.5122 10.5666 1.20731 59.0502 0.375852 1.50748 33.7047 3.95867 -2.60993 172.999 4.08712 89.4267 -11.2312 -5.38743 -1.59693 64.4982 -2.45194 -1.3132 29.4848 0.112691 -1.32821 -0.0554731 6.91512 -90.3182 13.0425 -0.262996 -0.604254 1.37148 -0.289345 -0.592101 -21.1626 -0.0692486 -0.655364 -1.14992 -0.0692397 -0.655363 92.8156 -51.8255 -96.1721 23.777 -7.1743 0.35765 -3.40941 -25.4638 -39.0225 -7.55896 -1.01167 5.93743 -105.278 -54.5653 58.3852 -16.1466 15.4086 1.5775 0.43289 11.6123 -28.7107 11.9863 1.02685 4.48313 8.53102 0.787936 3.83888 -2.13915 0.0523407 -0.372905 
-55.6483 97.0283 47.0195 59.1303 -89.6948 59.6352 -171.065 5.29442 95.6453 -9.62895 11.3151 1.69807 58.0758 0.000271034 1.43377 34.4725 4.52025 -1.96018 172.867 4.2146 89.994 -11.9056 -5.50811 -1.00035 65.0249 -2.49204 -1.32121 29.0896 0.133911 -1.9202 -0.0870577 6.93249 -90.4072 13.007 -0.368377 -0.769455 1.33587 -0.401877 -0.7525 -21.1975 -0.120099 -0.844581 -1.18488 -0.120103 -0.844584 92.982 -52.0273 -95.8866 23.3344 -7.01288 -0.040201 -3.64337 -26.1477 -38.9048 -6.01293 -0.949555 6.60626 -104.761 -54.237 58.956 -17.0291 15.8635 1.08165 0.336635 11.5764 -28.9154 11.8758 0.993519 4.28726 8.05971 0.956269 3.56764 -1.26885 0.269352 -0.859083 
-57.1068 96.9623 46.9935 45.0894 -89.5671 45.3355 -171.245 5.29489 96.0161 -8.8411 10.7599 2.14858 56.8079 -0.880702 0.877019 34.9366 4.85892 -0.950383 172.659 4.43953 90.3189 -12.2396 -5.90752 -0.468878 65.8651 -2.73541 -1.44654 28.3013 0.0877787 -1.63486 -0.109888 6.94029 -90.4816 12.9906 -0.449351 -0.908603 1.31945 -0.488906 -0.887961 -21.2133 -0.155517 -1.00164 -1.20063 -0.155527 -1.00165 92.7776 -51.9411 -96.209 23.3024 -6.88982 -0.227608 -4.0313 -26.657 -39.2215 -5.99037 -0.96086 6.7181 -104.969 -54.2389 58.6734 -17.5292 16.3058 0.85679 0.270701 11.5146 -29.1894 11.9075 0.997093 4.29428 8.40042 0.909788 3.63134 -1.82924 0.184976 -1.82516 
-58.507 96.8469 46.9239 54.4805 -89.2505 54.7054 -171.378 5.14283 96.5667 -7.75619 11.2835 2.64192 55.911 -1.1421 0.357598 34.6631 4.62055 0.572972 172.607 4.67677 90.8767 -12.6856 -6.0058 0.0422422 66.6392 -2.88128 -1.50992 27.5708 0.0567718 -1.56232 -0.159049 6.93437 -90.5828 13.0011 -0.595593 -1.09283 1.32981 -0.643114 -1.06558 -21.2019 -0.239648 -1.22129 -1.18928 -0.23965 -1.2213 92.6609 -52.1964 -96.3399 22.7939 -7.3034 -0.534834 -3.39413 -26.7494 -38.8509 -6.13531 -0.941969 6.25737 -105.173 -54.1332 58.3522 -17.9546 16.7335 0.771876 0.08589 11.4729 -29.3651 12.8063 1.06517 4.29062 8.59224 0.744273 3.28738 -1.90847 0.0863089 -1.60002 
-59.6409 96.8133 46.8308 61.1223 -88.0162 61.1674 -171.46 6.36004 96.843 -8.06628 12.4042 2.66431 55.0863 -1.67588 0.650832 34.7749 4.70626 0.771868 172.323 5.05404 91.1488 -12.5908 -5.61707 0.641401 66.8223 -2.83687 -1.47587 27.276 0.0314646 -1.37688 -0.291238 6.89118 -90.6756 13.0851 -0.903009 -1.24037 1.41393 -0.956725 -1.19943 -21.1174 -0.488528 -1.45437 -1.10477 -0.488528 -1.45438 92.7525 -52.2651 -96.1904 22.3099 -7.51337 -0.653896 -3.56723 -27.5035 -39.0338 -6.28994 -0.973722 6.45004 -104.683 -53.6159 58.8127 -18.5496 17.3175 0.0826747 -0.140976 11.5273 -29.3424 12.6335 0.989249 3.81484 9.05503 0.589826 2.44548 -2.17769 0.0955612 -1.01596 
-60.7199 96.7839 46.7161 64.6214 -89.0468 63.6597 -171.572 5.4946 96.5365 -7.95386 11.0257 2.77998 55.4334 -1.27438 -1.20496 33.5486 3.6581 2.91346 172.219 5.19457 90.8073 -13.7075 -6.58005 0.444821 67.4602 -2.95629 -1.51401 26.7869 -0.0169862 -1.00997 -0.214606 6.93935 -90.6803 12.9898 -0.75262 -1.26829 1.31849 -0.807707 -1.23395 -21.2122 -0.336706 -1.43583 -1.19957 -0.336695 -1.43582 92.5441 -52.1618 -96.5214 21.738 -7.33013 -0.438622 -3.36897 -27.6736 -38.6328 -5.6973 -0.937821 6.56243 -105.191 -53.5018 58.0688 -18.9073 17.74 0.212404 -0.115661 11.2174 -30.2771 12.8794 1.06579 4.25271 8.95892 0.477326 1.91516 -2.22713 0.0901001 -0.906448 
-61.1234 96.6903 46.6334 58.9956 -88.5748 58.3977 -171.77 6.31166 96.8467 -8.53757 10.9631 3.11725 55.7151 -0.819663 -1.90588 33.1366 3.28423 3.72399 172.173 5.24081 91.2502 -13.238 -6.3592 0.875778 67.636 -2.99307 -1.53447 26.3949 -0.0324699 -1.02779 -0.264875 6.88336 -90.8077 13.0986 -0.914322 -1.50347 1.42715 -0.979605 -1.46178 -21.1018 -0.420284 -1.7087 -1.08913 -0.420281 -1.7087 92.4684 -52.3926 -96.5938 20.5253 -7.28287 -0.380604 -2.93483 -28.1661 -38.3567 -5.89397 -0.936097 6.25103 -105.136 -53.1987 58.0196 -19.2979 18.0744 -0.0448286 -0.0272409 11.0625 -30.9968 13.1515 1.1005 4.35402 8.80773 0.101314 0.650368 -2.10337 -0.0324244 -0.522268 
-61.4043 96.7137 46.4422 -114.484 -89.6325 -115.654 -171.752 5.1213 96.5278 -8.45813 9.58092 3.14194 55.1705 -0.995383 -1.73366 33.368 3.50415 3.04037 172.144 5.16328 90.8431 -14.3898 -7.9917 0.509313 67.9044 -3.15154 -1.60373 26.4641 -0.0287377 -1.03378 -0.174877 6.97207 -90.7874 12.9227 -0.724808 -1.48669 1.25113 -0.789537 -1.45337 -21.2775 -0.24457 -1.63576 -1.26485 -0.244559 -1.63576 92.5395 -52.28 -96.5073 20.085 -6.92963 -0.264124 -3.5109 -28.4966 -38.6782 -5.98458 -0.971148 6.6209 -104.818 -53.0964 58.4155 -19.4434 18.5742 -0.624615 -0.00123979 11.3572 -31.2345 13.3046 1.1501 4.62413 8.80316 -0.0312622 -0.199398 -2.25655 -0.0032088 -0.652365 
-61.3405 96.6607 46.315 -102.244 -88.7619 -103.511 -171.811 4.73947 96.3968 -8.4856 9.22921 3.22555 55.9115 -0.286035 -2.14959 32.7814 2.99097 3.61417 172.238 5.44777 90.7656 -14.9364 -8.69462 0.307891 68.039 -3.21594 -1.62862 26.5593 -0.0207812 -1.07995 -0.173472 6.97546 -90.7888 12.9159 -0.722672 -1.48998 1.24429 -0.787543 -1.45675 -21.2843 -0.241523 -1.63825 -1.27166 -0.241531 -1.63826 92.477 -51.9248 -96.6646 20.0294 -6.54914 -0.554002 -3.0329 -28.2605 -37.6021 -5.66311 -0.926669 6.32397 -105.105 -53.3737 58.1345 -18.9721 18.8859 -0.621168 0.155286 11.6625 -31.619 12.9339 1.12343 4.64598 8.77626 -0.0636754 -0.101644 -2.07349 -0.0672791 -1.36563 
-60.9303 96.6537 46.1167 -103.297 -88.6131 -104.267 -171.731 5.19312 96.507 -9.25885 9.25454 3.0954 56.1325 -0.145593 -1.68973 32.9814 3.18795 2.93492 172.268 5.35434 90.8071 -14.5687 -8.75922 0.306539 67.7353 -3.11752 -1.58224 26.6992 0.00649175 -1.34244 -0.237818 6.96602 -90.7478 12.9347 -0.830878 -1.3947 1.26334 -0.891454 -1.35679 -21.2664 -0.373358 -1.57989 -1.25377 -0.373362 -1.57989 92.8197 -52.7762 -96.0021 19.2089 -6.51199 -0.988782 -3.11484 -28.6791 -37.5278 -5.79445 -0.938532 6.27318 -104.593 -52.9239 58.655 -19.1737 18.8918 -0.954043 -0.0822325 11.613 -31.1875 13.0091 1.14871 4.78882 8.34853 -0.0512468 -1.33856 -1.47443 0.183411 -0.597238 
